<?xml version="1.0" encoding="UTF-8"?>
<svg width="750" height="489.39" version="1.1" viewBox="0 0 750.00001 489.39002" xmlns="http://www.w3.org/2000/svg">
 <g transform="translate(0,-10.61)">
  <rect x="-15.714" y="-10" width="785.71" height="532.86" fill="#148fff" opacity=".53"/>
  <path d="m-128.29 231.3c149.78-49.905 347.42 88.33 371.44 155.09 96.976-34.172 204.09 10.343 262.45 74.814 107.86-86.561 250.43-181.78 391.64-165.83l28.727 0.39409 28.623 0.18302-39.396 214.15-885.9 8.0812-171.73-14.142z" fill="#f7f7f7" fill-rule="evenodd"/>
 </g>
 <g transform="translate(0 -562.97)">
  <path d="m-109.1 615.98c205.68 76.319 608.61 159.22 912.97 116.29 45.831-8.8162 90.735-23.712 131.53-46.593" fill="none" stroke="#000" stroke-width="3"/>
  <path d="m189.61 737.74c15.341-30.682-35.941-68.009-39.396-45.457-5.0365 32.878-6.3889 47.72-23.249 59.321-16.86 11.602-36.408 19.424-53.523 27.552 37.21-8.1823 97.683-6.8849 116.17-41.416z" fill="#f06" fill-rule="evenodd"/>
  <path d="m-170.72 708.91c296.61 72.436 601.22 102 903.66 138.75 132.13 6.1222 264.76 3.8212 396.41-9.4526" fill="none" stroke="#000" stroke-width="3"/>
  <path d="m663.57 834.15 3.9286 12.143-6.7857-0.71428-2.5 1.4286h-4.2857l-2.1428-3.9286-3.5714-1.7857 0.71428-9.6429 10-1.7857z" fill="#ffd42a" fill-rule="evenodd"/>
  <path d="m-140.41 875.59c411.77 56.276 828.5 110.9 1244.5 70.711" fill="none" stroke="#000" stroke-width="3"/>
  <g transform="translate(48.036 -15.625)" fill="#fc0" fill-rule="evenodd">
   <path d="m105.09 926.11 11.607-4.8214-6.7857-1.7857-10 5.7143z"/>
   <path d="m115.98 922.81-6.0332 5.0488 0.10156-0.23242-3.0293-3.0312-2.7793 0.75781-10.354-1.2617 1.5156 8.332-1.7676 2.0215 3.7871 1.0098 1.2637-1.7676 2.0195 1.5156 5.8086 0.5039 1.0879-2.4844 4.2148 3.748 8.5879-1.5156v-8.8379l-4.7676 0.14844 4.2715-2.8828-3.9277-1.0723zm-7.584 8.5938 0.0762 0.084-0.23828 0.28516 0.16211-0.36914z"/>
  </g>
  <g transform="matrix(.97765 .21022 -.21022 .97765 185.12 -11.318)">
   <g transform="matrix(.9932 -.11638 .11638 .9932 -104.34 25.533)">
    <path d="m90.948 876.51c-2.3135-1.3776-21.057-8.1331-21.237-7.9636-1.0805 1.0176 4.0973 8.6256 6.2516 10.058 1.3112 0.87158 3.6969 1.5169 3.6969 1.5169s-2.1558 0.68574-1.3413 2.8376c1.1265 2.9763 4.1207 4.7479 6.9426 6.2662 1.8569 0.9991 5.6443 2.7039 7.6817 3.4516 1.0061 0.36922 1.2218 4.5474 3.978 3.7195 6.4864-1.9482 25.317 4.0696 30.75 2.4378 2.0498-0.61566-10.122-12.562-10.483-12.694-7.918-0.62977-18.914-5.2674-26.24-9.6295z" fill="#ff7474" fill-rule="evenodd"/>
    <g transform="matrix(.72634 0 0 .72634 -19.047 215.88)">
     <g transform="matrix(.54175 0 0 .54175 -400.84 560.52)">
      <path d="m1252.6 505.36c145.71-50.3 118.49 157.23 65.155 194.45-53.333 37.22-106.68 29.974-324.76-4.0406 232.68-58.979 188.45-165.85 259.61-190.41z" fill="#ff7474" fill-rule="evenodd"/>
      <g fill-rule="evenodd">
       <path d="m1340 552.01c-2.1208-3.6602-1.9654-7.9828-2.7709-11.99-3.3254-17.808 10.087 0.51106 11.745 5.8217 1.8956 5.455-7.0321 6.9872-8.9742 6.1682z" fill="#ba8fff"/>
       <path d="m1340.8 551.52c-0.087-0.182-0.1672-0.36459-0.2418-0.54771-1.8643-3.3083-1.7145-6.8193-2.7019-10.884-0.4314-2.1964-0.6012-3.8156-0.5762-4.9616 0.025-1.1705 0.252-1.7453 0.5004-1.9969 0.2116-0.21433 0.5651-0.29531 1.1722-0.049 0.5987 0.24291 1.3183 0.75829 2.1034 1.4793 1.5633 1.4358 3.2969 3.6027 4.7552 5.7448 1.4561 2.1388 2.6298 4.2417 3.081 5.5467 0.012 0.0317 0.023 0.062 0.034 0.0922 0.3584 1.3389 0.056 2.3608-0.546 3.1256-0.6204 0.78763-1.602 1.3592-2.6937 1.7439-1.0943 0.38556-2.2925 0.58021-3.3165 0.60913-0.5142 0.0145-0.9673-0.0133-1.3373-0.0755-0.3684-0.0619-0.6314-0.15797-0.696-0.23521zm-1.2183 1.3824c0.3978 0.12864 0.8848 0.16164 1.3459 0.15248 0.4805-0.01 1.0328-0.0673 1.597-0.16548 1.1359-0.19764 2.4174-0.57513 3.5598-1.1513 1.1448-0.5773 2.1635-1.3616 2.7434-2.3693 0.5713-0.99278 0.684-2.1426 0.1752-3.4501-0.01-0.0312-0.019-0.0626-0.029-0.0941-0.3773-1.3487-1.4854-3.5054-2.8813-5.7049-1.3935-2.1956-3.0832-4.4482-4.6308-5.9846-0.77-0.76441-1.5293-1.3765-2.2197-1.706-0.6874-0.32809-1.4255-0.42887-2.022 0.0765-0.5537 0.46904-0.8341 1.3571-0.9037 2.5825-0.071 1.2504 0.071 2.9587 0.47 5.2076 0.5593 3.5429 0.2327 7.8734 1.9514 11.599 0.1204 0.20171 0.2471 0.40153 0.3804 0.59933z"/>
      </g>
      <path d="m1386.1 530.4c-19.545 6.4111-49.418 19.468-49.418 19.468s-26.293 21.881-36.534 38.798c10.138 3.2229 28.178-8.0639 45.406-21.796 17.229-13.732 33.648-29.91 40.546-36.47z" fill="#fea" fill-rule="evenodd"/>
      <path d="m1386.9 530.41c-9.3158 9.6188-28.663 35.817-34.284 46.171-0.07 0.0546 45.063 20.154 43.436 20.203-17.74 0-87.065 0.81811-95.964-8.0812 17.99-22.853 86.812-58.293 86.812-58.293z" fill="#fc0" fill-rule="evenodd"/>
      <path transform="translate(0 552.36)" d="m1366.1 30.328-32.244 12.788c22.248 1.3718 56.417 1.3058 62.202 1.3058 1.0475-0.03127-16.783-8.1398-29.959-14.094z" fill="#ffe26b" fill-rule="evenodd"/>
      <path d="m1225 590.12c3.7294-36.616 18.292-53.54 32.147-55.151 13.855-1.6114 27.002 12.09 27.898 36.724 0 0-9.9627 12.09-18.237 12.785-14.256 1.1974-41.808 5.6421-41.808 5.6421z" fill="#ba8fff" fill-rule="evenodd"/>
      <path d="m1224.7 590.11c-2e-4 -0.24092 5e-4 -0.48121 0-0.72087 0.8785-14.698 4.8493-26.641 10.324-35.355 5.4913-8.7402 12.418-14.116 19.121-15.942 6.699-1.8245 13.083-0.11688 18.044 5.144 4.8007 5.0899 8.5557 13.802 9.7873 26.866-1.1434 0.70939-3.3417 2.5377-5.9589 4.3196-1.7367 1.1825-3.6146 2.3153-5.3873 3.0743-1.8227 0.78039-3.3025 1.0549-4.1816 0.88347-0.053 0.0454-0.1023 0.0872-0.1519 0.12965-6.9933 1.5889-17.914 4.1939-26.169 6.4186-8.5306 2.2991-15.259 4.4489-15.092 5.4804zm0.2451-0.27803c0.1676 1.0331 7.2147 0.95733 16.024 0.73628 8.7421-0.21936 19.412-0.59087 26.332-0.12158 0.2477 0.0168 0.4947 0.0278 0.7408 0.0333 3.118-0.66557 5.8646-2.2628 8.0566-3.8692 2.2577-1.6546 4.266-3.5748 5.9245-5.3829 3.4504-3.7617 5.6156-7.2737 5.2635-7.6811a1.6609 0.51227 89.949 0 0 0.6529 -2.1237c-1.6566-14.903-6.3777-25.243-12.796-31.184-6.4888-6.0064-14.384-7.2205-21.772-4.612-7.2658 2.5651-14.099 8.8087-19.183 17.912-5.0998 9.1313-8.5145 21.264-8.8525 35.877-0.018 0.23746-0.036 0.47568-0.053 0.71465z" fill-rule="evenodd"/>
      <path d="m1282.9 599.81c-82.38-7.2258-29.08 36.763-2.0203 23.234 4.2121-2.106 11.744-23.234 2.0203-23.234z" fill-opacity="0"/>
     </g>
     <path d="m305.69 893.39c-4.3534-0.10524-7.928 3.4283-8.9648 7.4746-5.0584 11.473-0.32956 24.869-6.0332 36.154-1.8604 3.176-4.271 6.1588-7.2324 8.334-3.9981 2.604-9.0544 3.5447-12.641 6.7324 17.144-0.99491 28.672-5.1929 40.178-13.223 9.0586-6.3217 15.557-21.213 18.148-37.996-0.29299-1.521-0.81324-2.8619-1.5898-3.9707-1.904-1.0399-5.9325 5.7377-5.8633 8.4883-2.3113-6.6156-8.9168-11.839-16.002-11.994z" fill="#ff9b9b" fill-rule="evenodd"/>
    </g>
   </g>
  </g>
  <path d="m52.987 534.4c190.23 81.662 399.89 95.042 604.07 104.85 61.996 4.7941 125.34 7.917 186.29-7.0014" fill="none" stroke="#000" stroke-width="3"/>
  <g transform="translate(-74.246 35.86)">
   <path d="m489.11 680.58c-4.0085 4.1602-8.737 7.6623-12.321 12.143-2.5106 3.1382-6.1963 5.4421-9.1072 8.2143-6.6909 6.3722-13.224 13.124-20.714 18.571-9.0584 6.588 3.5568-2.6688-3.9286 2.3214-4.0021 2.668-7.6258 5.9347-11.786 8.3928-2.9376 1.7358-6.0191 3.1816-8.9286 5-3.464 2.165-10.536 5.9198-10.536 10.714 0 0.13599-0.10217 0.79069 0 0.89286 0.97224 0.97224 5.2518 0.35713 6.7857 0.35713 7.4218 0 15.752 1.2212 22.5-2.3214 0.92701-0.48668 8.0916-6.0714 8.5714-6.0714 1.3896 0-1.9039 2.0247-2.8571 3.0357-2.1564 2.287-5.5012 4.9683-6.4286 8.2143-0.0631 0.2208-0.72563 2.4943-0.35714 2.6786 0.38165 0.19083 2.0554 0 2.3214 0 8.1556 0 13.156-5.3865 18.214-11.429 1.1399-1.3616 2.2399-2.7566 3.3928-4.1071 5.8524-6.8556 0.46686-4e-3 4.4643-5.7143 0.66682-0.9526 3.5913-3.6112 3.5714-3.5714-0.42022 0.84044-12.128 13.835-4.6429 11.964 0.43977-0.10995 0.85372-0.31556 1.25-0.53571 0.67843-0.37691 1.3254-0.80939 1.9643-1.25 1.088-0.75035 2.1417-1.5492 3.2143-2.3214 6.7311-4.8464 11.667-11.597 16.964-17.857 2.8176-3.3299 5.8896-6.4941 8.0357-10.357 1.3769-2.4785 2.3608-5.2475 3.75-7.6786 1.5952-2.7915 3.3929-5.4723 3.3929-8.75 0-4.1481-7.4421-6.3593-10.357-8.2143-1.5194-0.96685-4.5593-4.8138-6.4286-2.3214z" fill="#aad400" fill-rule="evenodd"/>
   <g fill-rule="evenodd">
    <path d="m514.37 638.41c-0.46141-21.077 8.3618-62.946 28.93-73.23 5.9591-2.9796 36.954-0.0282 44.3 1.8081 65.599 16.4 33.184 77.24-3.6163 106.68-25.997 20.797-46.718 27.122-79.558 27.122-3.3949 0-11.622 1.0354-13.561-0.90407-3.5824-3.5824-3.4317-25.868-1.8081-30.738 1.7796-5.3387 20.757-29.22 25.314-30.738z" fill="#aad400"/>
    <path d="m537.88 633.89c0.16944-5.5609-0.72334-13.471-6.3285-16.273-1.7-0.84999-5.6963-4.3844-8.1366-3.1643-11.555 5.7774-22.012 18.69-36.163 25.766-4.1298 2.0649-21.541 7.6653-22.602 10.849-3.3271 9.9812 14.013 7.6257 14.013 7.6846 0 3.3066-28.685 0.2449-21.698 7.2326 4.3103 4.3103 13.411 3.1642 18.986 3.1642h7.6846c-0.60271 0-1.2152-0.10782-1.8081 0-0.0873 0.0158-20.223 3.0691-18.986 6.7805 0.69156 2.0746 9.719 1.3561 11.753 1.3561 10.669 0 46.796 3.0066 54.696-2.2602 10.858-7.2388 11.753-22.955 11.753-34.807 0-3.4689 1.5558-8.6886-3.1642-6.3285z" fill="#cf0"/>
    <path d="m566.13 674.8c-2.9467 0-8.728 3.7566-10.848 5.8768-1.7615 1.7615-10.254 2.6421-13.108 4.0694-1.3987 0.69934 1.8688 1.5206 1.1292 2.2602-2.38 2.38-25.053 4.8162-22.602 9.719 0.99753 1.9951 4.095 2.3486 6.5306 2.7304 17.006-2.2647 31.129-7.6656 46.328-18.043 1.8807-4.915 1.1683-6.6128-7.4291-6.6128z" fill="#cf0"/>
   </g>
   <path d="m538.91 587.86c5.8971-0.18039 13.002 5.2041 19.178 2.5571 2.4506-2.1771 7.2193-3.44 8.6302-6.0731" fill="none" stroke="#000" stroke-width="2"/>
   <path d="m542.17 564.96c-8.2142-2.4161-17.227-2.0342-25.766-2.0342-2.839 0-5.9914-0.35291-8.8147 0-0.52344 0.0654-6.3152 1.8347-5.6504 3.1642 2.5722 5.1445 23.416 4.7464 28.026 4.7464 2.739 0 5.244-0.22981 7.9106-0.45203 1.0234-0.0853 2.1247 0 3.1642 0h0.45204c-3.8493 0-7.6307 1.7112-11.301 2.7122-4.3368 1.1828-8.8002 1.8833-13.109 3.1643-3.2583 0.96868-8.4357 3.9443-7.2326 4.7464 1.6685 1.1124 9.1446 0.58808 11.301 0 2.1479-0.5858 4.1533-1.7164 6.3285-2.2602 5.8985-1.4746 10.535-0.99888 14.239-6.5545 0.74786-1.1218 4.5933-8.2679 0.45204-7.2326z" fill="#aad400" fill-rule="evenodd"/>
  </g>
  <path d="m445.02 843.14c-2.2812-0.0279-4.6114 0.32359-6.9922 1.1172-14.43 4.8099 24.98 62.849 18.229 76.352-17.816 35.549-49.767 65.827-71.617 101.21 5.1179 10.236 53.869 0.8799 61.43-2.1445 22.877-9.9753 29.698-38.431 30-59.285 0.3023-20.854-4.3004-34.402-1.2517-41.072 4.3846-4.3846 10.842-19.362 16.965-20.893 1.6577-0.41442 10.249 0.82415 11.608-0.53487 2.0548-2.0548 23.645 11.723-6.7857-8.0354-20.519-14.328-30.287-45.309-51.584-46.709zm123.68 39.768c0.083 7e-3 0.1657 0.0131 0.2461 0.0215-0.08-8e-3 -0.1635-0.0147-0.2461-0.0215zm-2.7578 0.0176c-0.1815 0.0137-0.3751 0.0368-0.5625 0.0547 0.1873-0.0179 0.381-0.041 0.5625-0.0547zm-1.6484 0.17382c-0.2163 0.0277-0.4394 0.0596-0.6621 0.0918 0.2226-0.0322 0.4459-0.0641 0.6621-0.0918zm5.7324 4e-3c0.2067 0.0482 0.4075 0.10048 0.5937 0.16407-0.1862-0.0636-0.387-0.1158-0.5937-0.16407zm0.5937 0.16407c0.1918 0.0655 0.3698 0.14219 0.5391 0.22461-0.1696-0.0826-0.347-0.159-0.5391-0.22461zm-8.0937 0.0957c-0.2541 0.0427-0.5103 0.0853-0.7715 0.13281 0.2613-0.0475 0.5173-0.0901 0.7715-0.13281zm8.8105 0.22461c0.1115 0.0615 0.2181 0.12726 0.3184 0.19726-0.1003-0.07-0.207-0.13578-0.3184-0.19726zm-10.322 0.0508c-1.0194 0.19709-2.0744 0.41754-3.1856 0.67382 1.1106-0.25611 2.1667-0.47684 3.1856-0.67382zm10.783 0.25195c0.099 0.0777 0.1907 0.16062 0.2773 0.24805-0.086-0.0873-0.1782-0.17043-0.2773-0.24805zm0.3945 0.36914c0.1125 0.12817 0.2176 0.2623 0.3047 0.41016-0.087-0.14805-0.192-0.28183-0.3047-0.41016zm-18.764 1.1406c-0.6977 0.18106-1.433 0.37982-2.1523 0.57227 0.7212-0.19299 1.4528-0.39072 2.1523-0.57227zm15.396 1.1094c-2.4719 1.2012-4.9899 2.3519-7.541 3.4531 2.5511-1.1012 5.0691-2.2519 7.541-3.4531zm-20.246 0.18945c-0.8798 0.24094-1.7838 0.48905-2.6855 0.73828 0.9062-0.25048 1.8014-0.49615 2.6855-0.73828zm-12.141 3.3047c-1.3303 0.34948-2.6653 0.68751-4 1.0176 1.3381-0.33089 2.6663-0.66719 4-1.0176zm-37.029 1.1328c0.08 0.0747 0.1587 0.15272 0.2383 0.22657-0.08-0.0735-0.1586-0.15226-0.2383-0.22657zm31.938 0.16016c-1.7705 0.42856-3.5351 0.8326-5.2832 1.1992 1.7482-0.36664 3.5126-0.77065 5.2832-1.1992zm22.199 1.8223c-2.2629 0.87179-4.5408 1.6994-6.8242 2.498 2.2829-0.79852 4.5618-1.6265 6.8242-2.498zm-31.428 0.13672c-0.3974 0.0702-0.7953 0.14014-1.1895 0.20508 0.394-0.0649 0.7922-0.13493 1.1895-0.20508zm-2.168 0.36133c-0.5262 0.0812-1.0473 0.15601-1.5664 0.22656 0.5192-0.0706 1.0401-0.14534 1.5664-0.22656zm-16.742 0.0391c0.1042 0.0265 0.2071 0.055 0.3125 0.0801-0.1055-0.0251-0.2082-0.0535-0.3125-0.0801zm0.9239 0.20313c0.4452 0.0926 0.8962 0.17872 1.3613 0.24804-0.4648-0.0693-0.9164-0.15546-1.3613-0.24804zm13.394 0.0996c-0.6345 0.0793-1.2614 0.14583-1.8828 0.20703 0.6217-0.0612 1.248-0.12767 1.8828-0.20703zm-11.297 0.24414c0.4297 0.0521 0.8661 0.0965 1.3106 0.13086-0.4448-0.0344-0.8806-0.0787-1.3106-0.13086zm8.8555 0.0215c-0.7908 0.0711-1.5703 0.12617-2.3359 0.16406 0.7654-0.0379 1.5453-0.093 2.3359-0.16406zm-6.7598 0.16211c0.46 0.0248 0.9286 0.0391 1.4024 0.0469-0.4736-8e-3 -0.9426-0.0221-1.4024-0.0469zm3.9063 0.0176c-0.5811 0.0229-1.1565 0.0396-1.7207 0.041 0.5642-1e-3 1.1396-0.0182 1.7207-0.041zm20.523 5.6523c-2.2402 0.64439-4.4717 1.2614-6.6797 1.8379 2.2087-0.57663 4.4388-1.1933 6.6797-1.8379zm-48.894 9.5312c-0.9283 0.19606-1.59 0.38213-1.8965 0.55274 0.3063-0.17048 0.9694-0.35685 1.8965-0.55274zm-2.0586 0.67774c-0.031 0.0408-0.037 0.0803-0.019 0.11914-0.018-0.0388-0.01-0.0784 0.021-0.11914-2e-4 3e-4 0-3.1e-4 0 0zm-0.019 0.11914c-0.8643 0.32176-1.5619 0.64393-2.1036 0.96679 0.5417-0.32286 1.2393-0.64503 2.1036-0.96679zm-2.8008 1.4512c-0.4852 0.40395-0.7333 0.80893-0.7676 1.2129 0.034-0.40397 0.2843-0.80894 0.7695-1.2129-3e-4 3e-4 0-3.1e-4 0 0zm6.5039 18.896c-0.2795 0.0142-0.6025 0.0198-0.875 0.0352 0.2726-0.0153 0.5954-0.021 0.875-0.0352zm33.623 0.043c1.5416 0.0441 3.0418 0.10454 4.5821 0.1543-1.5411-0.0497-3.0398-0.11031-4.5821-0.1543zm29.471 1.0977c6.474 0.27212 11.995 0.5046 15.75 0.60351-3.7593-0.0989-9.2663-0.33125-15.75-0.60351z" fill="#a385dd" fill-rule="evenodd"/>
  <path d="m544.23 896.25c-18.344 8.2601-39.508 11.463-48.6 14.514 3.1936 13.795 50.58 15.096 65.403 19.438-1.4678 0.43853-18.229-0.47487-23.886-0.46491-6.8805-1.2458-13.895-1.714-20.787-2.9636-6.1378-0.4049-12.055-1.7749-18.171-2.0052-9.3608-1.3321-19.832-2.8091-26.146-10.662-2.3858-6.4579 6.3451-8.3142 11.009-8.4749 11.337-1.8803 58.003-13.264 61.177-9.3824z" fill="#d4aa00" fill-rule="evenodd"/>
  <path d="m457.7 956.09c0 3.3505 0.8111 7.8672 0 11.112-0.9665 3.8658-2.8919 6.1056-5.0508 9.3439-16.364 22.287-74.396 55.274-94.954 45.962-2.4971-2.4971 18.94-7.8287 18.94-7.8287s-8.9848 0.7136-6.7647-3.4489c2.2202-4.1625 14.645-3.5927 24.621-13.749 0 0-16.746 6.0758-18.239 3.8367-2.2368-3.3553 12.368-7.0844 13.237-7.6247 19.828-8.67 22.597-16.853 34.623-31.542 7.2407-6.9476 10.415-14.015 19.445-18.688" fill="#a385dd" fill-rule="evenodd"/>
  <path d="m395.68 1013.4c-12.259 6.1878-25.685 14.384-34.113 16.044-1.4995 0.4309-18.099 3.8925-16.172 6.4518 4.9522 2.4981 15.63 0.018 15.63 0.018s-7.2566 3.0705-2.4541 4.5189c4.8024 1.4484 8.8655 0.803 8.8655 0.803s-2.5649 2.078 1.0137 4.8567c0 0 15.468-8.7723 22.57-15.35 6.3492-5.3792 12.678-10.813 18.73-16.578-3.0152-1.8094-6.664-1.9391-10.904-1.8585-1.0368 0.2321-2.1139 0.7599-3.1656 1.0945z" fill="#a385dd" fill-rule="evenodd"/>
  <path d="m454.26 956.83c0.24475 1.1541 0.0555 2.8237-0.54292 4.8933-0.59548 2.0593-1.5811 4.4574-2.866 6.9879-2.5763 5.0739-6.2992 10.567-10.28 14.735-0.0382 0.0395-0.0774 0.0797-0.11758 0.12055-1.644 2.175-5.1707 5.4818-9.7735 9.2195-4.6831 3.8028-10.415 8.0082-16.363 11.981-5.947 3.972-12.096 7.7022-17.621 10.566-5.5295 2.8662-10.397 4.8451-13.832 5.3619 0.0125 0.1535 0.0249 0.3071 0.0372 0.4606 0.0174 0.153 0.0349 0.3061 0.0525 0.4591 3.684-0.1787 8.8501-1.8958 14.614-4.4744 5.7761-2.5841 12.188-6.0497 18.4-9.7618 6.2092-3.7108 12.237-7.6796 17.244-11.276 4.84-3.4762 8.9078-6.7294 11.194-9.1077 0.0463-0.0589 0.092-0.11753 0.13686-0.17592 3.8234-5.0177 7.1682-11.233 9.241-16.83 1.0401-2.8085 1.7722-5.4932 2.0808-7.8225 0.3069-2.3162 0.20138-4.3442-0.49071-5.7444a0.59326 0.59326 90 0 0 -1.1138 0.40898z" fill="#8f6bd6" fill-rule="evenodd"/>
  <path d="m567.42 882.85c-13.629 0.0957-49.071 16.026-65.646 10.385-2.1283-0.0772 0.5066 0.61826-1.6064 3.3929-1.359 1.359-6.7359 1.3704-8.3936 1.7849-6.1226 1.5306-17.223 4.3654-21.608 8.75 2.2238 12.663 1.366 11.511 3.2344 18.674 10.058-4.5636 41.457 7.9333 94.088 6.6833 29.498-0.81755-113.37-11.846-85.715-22.143-0.5723-1.2412 24.486-3.53 29.287-5 19.278-3.9386 42.05-10.7 61.428-20.715-0.7694-1.3059-2.5445-1.8302-5.0684-1.8125z" fill="#ffdf58" fill-rule="evenodd"/>
  <path d="m475.38 886.27c-4.3511-11.805-19.281-12.784-11.112 0" fill="none" stroke="#000" stroke-width="2"/>
  <path d="m435.39 828.94c-1.4977-0.042-2.9739 0.15321-3.25 1.2578-0.7298 2.9189 3.6036 4.4629 3.5722 4.4629-1.1345 0-2.0814-0.56176-3.2148-0.71289-5.0344-0.67125-19.874-2.2245-21.785 4.4629-1.5965 5.5876 15.713 3.1577 15.713 3.75 0 1.0943-2.0015 0.89049-3.0351 1.25-1.4427 0.50179-21.569 8.0733-18.57 11.072 0.334 0.33403 9.9064 0.78594 14.639 0.68164 1.7954-0.63584 3.2585-0.99741 3.5743-0.68164 0.018 0.0176-1.176 0.52046-1.25 0.53516-0.4169 0.0834-1.2949 0.12379-2.3243 0.14648-3.5037 1.2408-8.367 3.5961-9.1035 4.4961-0.7058 0.86272-1.2305 2.1783-1.6074 3.2148-0.1203 0.3308-0.9802 2.2347-0.5352 2.6797 2.3171 2.3171 20.101-4.5438 21.25-3.3945 0.1933 0.19327-2.6721 0.43599-3.75 2.3223-1.2498 2.187-0.9215 4.2852 1.6075 4.2852h10.713c-3.5107 0-8.5966 2.3484-11.07 4.8223-4.143 4.143 12.585 0.7997 13.75 1.9648 2.3757 2.3757 3.8809 4.9023 5.3575 7.8555 0.01 0.0156 0.023 0.0349 0.031 0.0508 0.6961 1.6162 1.3948 3.2353 2.0781 4.8418 1.9768-9.5778-0.9727-24.284 10.332-25.365 5.3477 2.8282 13.464 7.4247 14.969 5.9199 0.2201-0.21842 0.3426-0.66976 0.4258-1.1465 0.8175 0.67764 1.5993 1.3688 2.2383 2.0078 0.9713 0.97133 2.1771 1.9887 3.4453 2.9004-0.985-1.2512-1.9459-2.5084-2.9082-3.7637 0.094 0.029 0.1872 0.0683 0.2812 0.0918-3.8541-6.8194-6.9761-24.115-12.68-28.393-2.8648-2.1486-2.2205 1.5988-0.9551 3.3594 0.5832 0.4546 1.1789 0.94687 0.7773 0.74609-0.2692-0.13462-0.5338-0.4072-0.7773-0.74609-0.2388-0.18611-0.5009-0.39978-0.6524-0.50391-2.5465-1.7507-5.1179-3.4407-7.6777-5.1777-3.9255-2.6637-12.405-8.743-17.143-9.1074-0.6589-0.0507-1.5662-0.16037-2.4648-0.18555z" fill="#8c5fd3" fill-rule="evenodd"/>
  <path d="m458.05 848.45c-1.3396 0.06-0.9199 2.6751-0.9199 3.7129 0 3.1508 4.8319 8.0467 6.9648 10.18 1.138 1.1294 2.1625 2.3642 3.2149 3.5703 0 0-16.462-12.188-18.215-11.25-1.9132 1.9132 2.4468 6.0861 3.75 6.6074 3.5919 1.4368 7.311 4.3022 10.715 6.4297 6.6263 3.254 17.496 13.782 13.099 2.5524-6.1658-14.743-2.7966-13.531-3.2125-19.559-0.4158-6.0284-4.4342 6.0356-2.0351 12.728-1.5783-0.25254-8.023-12.968-12.674-14.829-0.2696-0.10783-0.4961-0.15115-0.6875-0.14258z" fill="#a385dd" fill-rule="evenodd"/>
  <path d="m447.47 853.25c2.7653-1.6726 7.8571 0.71429 7.8571 0.71429s-4.8942-5.6538-7.1428-6.7857c-3.1684-1.5842-12.981 1.4171-0.7143 6.0714z" fill="#a385dd" fill-rule="evenodd"/>
  <path d="m463.84 849.74c2.7946 2.3768 6.2537 10.268 6.2537 10.268s-5.579-18.597-7.9363-17.487c-3.8664 1.7585-1.112 4.8419 1.6826 7.2187z" fill="#a385dd" fill-rule="evenodd"/>
  <path d="m472.99 958.44c-7.7246-0.0108-25.729 36.203-26.215 40.264-0.299 2.4988-4.038 8.2414-0.875 10.326 5.1163 3.3722 11.318 1.3993 16.69-2.6699 9.4143-12.515 12.928-29.754 13.408-43.99-0.5626-2.7448-1.6182-3.9277-3.0079-3.9297z" fill="#b15ad2" fill-rule="evenodd"/>
  <path d="m-157.58 948.32c357.69 60.522 719.5 104.83 1082.9 86.869" fill="none" stroke="#000" stroke-width="3"/>
  <path d="m428.16 1028.1c0.7692-2.3458-3.7705-12.004-1.0102-13.384 5.2411-2.6205 4.356 8.2077 5.3033 7.5761 2.1999-1.4665 0.2908-7.071 4.2932-7.071 0.1028 0 0.9786-0.063 1.0101 0 0.454 0.9079 0.7703 8.8262 1.2627 8.3337 0.4856-0.4855 3.8648-11.792 5.3033-10.354 1.2173 1.2172 0.3081 8.1671-0.2525 9.849-0.4125 1.2374-2.1798 8.8078-3.7881 9.3439-0.9897 0.3299-2.7676 0.01-3.283-0.5051-0.1315-0.1315 0.099-2.2728 0-2.2728-0.4515 0-2.3878 2.2041-3.0304 2.5253-1.788 0.894-5.8202-1.2509-3.7881-3.283 0.8782-0.8782-1.9497 4.1112-3.5355 2.5254-2.0399-2.0398 0.6595-2.9977 2.2728-3.5355" fill="#fc0" fill-rule="evenodd"/>
  <path d="m444.32 1022.7c-0.6493-0.103 3.0834-9.4906 4.5457-6.566 0.6528 1.3056-0.9977 5.3157 0 6.3135 0.3737 0.3737 0.2312-1.1986 0.2526-1.2627 0.394-1.1822 0.956-2.3087 1.2627-3.5355 0.2265-0.9061 3.474-3.6587 4.2931-2.0204 0.4474 0.8949 0.2525 11.315 0.2525 6.566 0-1.0673-0.1501-2.853 1.5153-2.0203 3.231 1.6155-2.6644 8.7253-3.283 9.344-1.1007 1.1006-4.4903-0.2526-5.3033-0.2526-0.5888 0-0.3252 5.6158-3.5356 4.5457-1.1724-0.3908-2.684-5.9962-2.0203-7.3236 0.7359-1.4718 1.5596-1.9449 2.0203-3.7881z" fill="#fc0" fill-rule="evenodd"/>
  <path d="m639.64 829.51-5.7143 8.2143 7.1429 2.1429 0.35714 1.7857 7.8572 1.7857 5-8.2143-0.35715-4.2857z" fill="#ffd42a" fill-rule="evenodd"/>
  <g transform="matrix(1.2142 0 0 1.2142 944.2 -3.94)">
   <path d="m-274.64 606.78c15.617-15.16 47.543-14.711 50.634 3.8148 8.9132 53.428-2.0132 58.429 19.006 76.805-17.64 2.5024-28.228 4.9104-45.863 0.37833-30.259-7.7764-46.131-59.298-23.778-80.998z" fill="#0393ff" fill-rule="evenodd"/>
   <path d="m-278.68 629.74-10.733-5.4296 21.466 2.7779-10.354 17.678z" fill="#ffd42a" fill-rule="evenodd"/>
   <path d="m-289.16 624.44 18.814-1.5152 2.2728 4.1669z" fill="#ffd42a" fill-rule="evenodd"/>
   <path d="m-260.54 612.9c-0.99024 7.1333 11.615 8.6058 15.357-0.35764" fill="none" stroke="#000" stroke-width="1.2354"/>
   <path d="m-233.34 636.97c-20.512 8.5689 5.6341 36.697 28.031 46.429 1.1747-2.3509 0.9434-4.8025-0.71094-6.4961-0.57448-0.57448-1.7159-1.2912-2.0527-1.9648 1.5166-2.0484-2.9936-8.3828-7.4485-10.991 4.1034-1.3264 0.5218-7.2149-0.6078-9.5063-3.2132-6.518-11.929-19.042-17.211-17.47z" fill="#0393ff" fill-rule="evenodd"/>
   <path d="m-250.74 643.72c-4.1e-4 2e-3 -7e-3 0.0401-0.0188 0.111-0.30556 0.57111-0.97271 3.6342-0.83223 7.5763 0.13919 3.906 1.079 8.884 4.235 13.074 0.78511 1.0411 1.7432 2.0456 2.8071 3.005 3.7754 2.8195 8.8504 5.2608 13.268 7.05 5.7993 2.349 10.73 3.681 10.843 3.3511a0.04589 0.04589 90 0 1 -0.03 0.0867c0.1133-0.33046-4.5524-2.318-9.9562-5.2547-4.1837-2.2736-8.7022-5.0604-11.796-8.01-1.0043-0.7741-1.8712-1.5525-2.5716-2.3265-2.9254-3.2388-4.2218-7.4352-4.769-11.151-0.53362-3.6231-0.32782-6.723-0.43493-7.277 0.0108-0.066 0.0168-0.0992 0.0164-0.0969a0.38674 0.38674 90 0 0 -0.761 -0.13836z" fill="#005da2" fill-rule="evenodd"/>
   <path d="m-289.16 624.44 18.814-1.5152 2.2728 4.1669z" fill="#ffe680" fill-rule="evenodd"/>
   <path d="m-278.67 645.16 8.0914-18.254 2.7233 0.21552z" fill="#ffe680" fill-rule="evenodd"/>
   <path d="m-280.36 616.62c0.54948 2.9782 6.4226 1.5621 6.8554-2.5762" fill="none" stroke="#000" stroke-width="1.2354"/>
  </g>
  <path d="m183.69 704.8c6.0435-0.33449 19.488-13.177 23.277-17.294 2.4508-2.6626 10.279-2.1296 6.656 1.4267-3.0098 2.8108-2.9928 3.8373-4.508 7.7892 0 1.633 1.8444-1.1631 2.5033 1.8434 1.9738 9.006-13.838 16.736-13.838 18.216 0 0.88208 2.1986-0.91595 2.8821-0.29223-0.43091 2.8384-5.1124 7.7724-7.6856 9.0591-4.9241 2.2467-8.357 6.1368-14.731 6.1368" fill="#f06" fill-rule="evenodd"/>
  <path d="m168.15 697.34 16.415-9.849-8.3338 11.112 6.566 8.0812-15.152-0.25254z" fill="#f0c100" fill-rule="evenodd"/>
  <path d="m144.16 764.26c3.0305 0 10.102 1.2627 10.102 1.2627l-2.2728 8.8388-7.3236 0.25254z" fill="#ffd42a" fill-rule="evenodd"/>
  <path d="m153.39 767.18 7.8571 0.35715-0.71429 8.9286-7.1428-1.9643z" fill="#ffd42a" fill-rule="evenodd"/>
  <path d="m165.71 715.84c-2.0297 5.7446 7.1092 5.173 7.5 12.946 1.094-0.54702 2.7293-1.1414 3.8393-1.6964 0.76752-0.38376 1.0333 6.034 2.2321 5.9821 3.4064-0.14726 5.6358-3.0573 6.7857-5.3571 0.43777-0.87554 0.28785 2.0736 0.71428 2.5 0.0826 0.0825 3.5004-4.0538 3.5714-4.2857 2.0437-6.6701-1.705-14.787-2.5-15-2.1498-0.57691-2.4811 1.8609-4.6428 1.4286-1.5798-3.5481-3.3-2.2607-4.2857-2.1429-2.7227 0.32562-2.1581 2.1429-3.9286 2.1429-1.4886-1.3393-4.8373-2.1971-7.1429-1.4286-1.3634 0.45447-1.2832 4.0511-2.1429 4.9107z" fill="#a04" fill-rule="evenodd"/>
  <path d="m150.47 722.71c-1.934 3.7269-5.7831 8.6071-9.5966 12.759-7.9569 9.4102-1.1279-6.1483-2.3468-5.7575-1.3391 0.66245-11.526 22.801-17.348 22.422-3.9352-2.0354 3.8638-9.5536 5.3249-17.231-6.8265 8.1191-8.4347 15.56-18.947 19.838-4.9064 0.55931-1.4243-3.5866-1.4105-5.3962-4.0619 1.2009-14.404 2.6798-17.009 0.21034-0.62289-1.3504 5.9021-5.0176 7.6863-5.6442 7.5741-4.5466 43.796-56.389 49.285-38.069" fill="#f06" fill-rule="evenodd"/>
  <path d="m155.65 695.19c1.5339 2.3754 7.8858 2.5545 6.566-1.6415" fill="none" stroke="#000" stroke-width="1px"/>
  <path d="m167.64 693.3c2.0072 1.1053 3.8542 1.5478 3.9485-1.0722" fill="none" stroke="#000" stroke-width="1px"/>
  <g transform="translate(-74.425 35.95)" fill-rule="evenodd">
   <path d="m537.12 702.46-1.2621-5.2394 4.5646-1.3303 1.928 0.68823-0.22594-1.3444 3.5247-1.502 1.5073 1.1367-0.1325-1.8099 2.0603-0.79427 3.856 4.6688-2.3872 7.362-3.9415 1.5195-0.16365-1.6547-2.1109 3.1041-2.999-0.70476-0.96211-2.2058-1.0632 2.4139-3.3457-1.8594z" fill="#fc0"/>
   <path d="m546.86 705.54 1.8081-8.5322 3.8988-0.0565-1.9212 7.1761z" fill="#fd5"/>
   <path d="m524.87 699.49 2.082-5.8756 6.0227 1.3559 1.7083 1.799 0.64435-1.4505 4.9679 0.58127 0.93559 1.9938 1.0605-1.8527 2.848 0.42187 1.2165 6.828-7.6049 5.8305-5.4483-0.80704 0.92179-1.7186-4.4485 1.8147-2.9019-2.4396 0.39208-2.7247-2.809 1.7483-2.5201-3.7745z" fill="#fd5"/>
  </g>
  <g fill-rule="evenodd">
   <g transform="translate(-74.246 35.86)">
    <path d="m611.11 688.14c-7.9535-2.3038-14.192-4.0426-21.698-8.1366-16.469-5.35-22.663-18.553-21.246-39.327" fill="#fd5"/>
    <path d="m570.43 645.65c7.5419 2.967 37.704 47.279 42.491 42.491 4.4223-4.4223 0.90407-27.369 0.90407-35.259" fill="#fc0"/>
    <path d="m601.16 584.17c7.4611-0.43282 13.236 3.0016 19.89 6.3285 6.5929 3.2965 16.91 4.4656 21.698 10.849 14.435 19.247 15.587 42.524 9.9448 65.093-0.333 1.332-0.0117 6.6338-1.8081 7.2326-9.5024 3.1674-25.471-6.9837-34.355-9.9448-8.1954-2.7318-43.617-9.4833-47.012-16.273-7.774-15.548 20.564-55.899 31.642-63.285z" fill="#fd5"/>
   </g>
   <path d="m548.58 632.56c0.17109 3.0023 3.7598 3.1811 4.5597 5.2671" fill="#ff7f2a" stroke="#d4aa00" stroke-width="3"/>
  </g>
  <g transform="matrix(.54175 0 0 .54175 -400.84 560.52)">
   <path d="m1282.9 599.81c-82.38-7.2258-29.08 36.763-2.0203 23.234 4.2121-2.106 11.744-23.234 2.0203-23.234z" fill-opacity="0"/>
  </g>
 </g>
</svg>
