<?xml version="1.0" ?><svg id="Layer_1" style="enable-background:new 0 0 128 128;" version="1.1" viewBox="0 0 128 128" xml:space="preserve" xmlns="http://www.w3.org/2000/svg" xmlns:xlink="http://www.w3.org/1999/xlink"><style type="text/css">
	.st0{fill-rule:evenodd;clip-rule:evenodd;}
	.st1{fill-rule:evenodd;clip-rule:evenodd;fill:#EFCE4A;}
</style><path class="st0" d="M81,43.7l43-0.1c1.8,0,3.3,1.1,3.8,2.8c0.5,1.7,0,3.4-1.5,4.5L91.5,76l13.4,40.9  c0.5,1.7,0,3.4-1.4,4.5c-1.4,1-3.3,1-4.7,0L64,96l-34.7,25.3c-1.4,1-3.3,1-4.7,0c-1.4-1-2-2.8-1.4-4.5L36.5,76L1.7,50.8  c-1.4-1-2-2.8-1.5-4.5c0.5-1.7,2-2.8,3.8-2.8l43,0.1L60.2,2.8C60.7,1.1,62.2,0,64,0s3.3,1.1,3.8,2.8L81,43.7L81,43.7z M64,4  L49.9,47.7L4,47.6l37.2,26.9l-14.3,43.6L64,91.1l37.1,27.1L86.8,74.5L124,47.6l-45.9,0.1L64,4z" id="XMLID_6_"/><polygon class="st1" id="XMLID_1_" points="64,4 78.1,47.7 124,47.6 86.8,74.5 101.1,118.1 64,91.1 26.9,118.1 41.2,74.5 4,47.6   49.9,47.7 "/></svg>
