<?xml version="1.0" encoding="iso-8859-1"?>
<!-- Generator: Adobe Illustrator 17.1.0, SVG Export Plug-In . SVG Version: 6.00 Build 0)  -->
<!DOCTYPE svg PUBLIC "-//W3C//DTD SVG 1.1//EN" "http://www.w3.org/Graphics/SVG/1.1/DTD/svg11.dtd">
<svg version="1.1" id="Capa_1" xmlns="http://www.w3.org/2000/svg" xmlns:xlink="http://www.w3.org/1999/xlink" x="0px" y="0px"
	 viewBox="0 0 432.487 432.487" style="enable-background:new 0 0 432.487 432.487;" xml:space="preserve">
<path id="XMLID_156_" d="M0.823,203.154c-2.074-4.518-0.093-9.86,4.424-11.935c22.537-10.349,51.443-18.872,85.914-25.332
	c4.884-0.924,9.588,2.302,10.504,7.188c0.916,4.886-2.303,9.589-7.188,10.504c-33.024,6.189-60.519,14.264-81.719,23.998
	c-1.216,0.559-2.493,0.823-3.75,0.823C5.599,208.4,2.339,206.453,0.823,203.154z M9.008,279.143c1.249,0,2.517-0.261,3.727-0.813
	c17.242-7.856,38.073-14.434,63.685-20.104c4.853-1.074,7.916-5.88,6.841-10.733c-1.075-4.853-5.88-7.92-10.733-6.841
	c-26.855,5.947-48.855,12.914-67.257,21.3c-4.523,2.061-6.519,7.398-4.458,11.922C2.322,277.186,5.59,279.143,9.008,279.143z
	 M298.185,141.094c0.405,0,0.815-0.027,1.228-0.084c43.087-5.879,91.988-14.229,127.981-31.586
	c4.477-2.159,6.356-7.538,4.197-12.016c-2.158-4.477-7.539-6.354-12.016-4.197c-33.733,16.267-80.903,24.275-122.596,29.965
	c-4.925,0.672-8.373,5.209-7.701,10.134C289.894,137.821,293.755,141.094,298.185,141.094z M419.57,163.955
	c-15.699,7.584-35.359,13.916-60.103,19.358c-4.854,1.067-7.924,5.869-6.857,10.724c0.925,4.203,4.648,7.068,8.782,7.068
	c0.64,0,1.291-0.068,1.941-0.212c26.132-5.747,47.088-12.528,64.067-20.731c4.476-2.162,6.351-7.543,4.189-12.019
	S424.044,161.793,419.57,163.955z M419.575,234.695c-19.451,9.381-45.515,16.981-79.679,23.236
	c-4.89,0.895-8.127,5.584-7.232,10.474c0.795,4.342,4.581,7.381,8.843,7.381c0.538,0,1.083-0.049,1.631-0.149
	c36.27-6.64,63.043-14.497,84.257-24.729c4.477-2.159,6.356-7.539,4.197-12.016C429.433,234.414,424.054,232.537,419.575,234.695z
	 M247.959,162.981c-32.047,0-58.119,26.072-58.119,58.119c0,17.702,7.923,34.223,21.737,45.323
	c3.874,3.114,9.539,2.496,12.653-1.378c3.113-3.875,2.497-9.54-1.378-12.653c-9.541-7.666-15.012-19.072-15.012-31.292
	c0-22.122,17.997-40.119,40.119-40.119s40.119,17.997,40.119,40.119c0,39.609-32.225,71.834-71.835,71.834
	c-39.609,0-71.833-32.225-71.833-71.834c0-17.841,6.583-34.946,18.539-48.164c12.787-14.141,28.415-24.366,43.529-34.257
	c27.908-18.262,56.767-37.146,59.169-78.728c0.724-12.53-3.791-24.636-12.712-34.088c-9.507-10.071-22.88-15.848-36.69-15.848
	c-27.249,0-49.417,22.168-49.417,49.417v46.963c0,4.971,4.029,9,9,9s9-4.029,9-9V59.433c0-17.323,14.094-31.417,31.417-31.417
	c8.878,0,17.48,3.719,23.601,10.204c5.486,5.812,8.268,13.161,7.833,20.693c-1.879,32.524-23.581,46.726-51.055,64.704
	c-16.067,10.514-32.682,21.386-47.023,37.244c-14.954,16.534-23.188,37.927-23.188,60.238c0,49.534,40.299,89.834,89.833,89.834
	c49.535,0,89.835-40.3,89.835-89.834C306.078,189.053,280.006,162.981,247.959,162.981z M237.086,344.479
	c-15.756,0-28.575,12.818-28.575,28.575c0,4.971,4.029,9,9,9s9-4.029,9-9c0-5.831,4.744-10.575,10.575-10.575
	c5.832,0,10.576,4.744,10.576,10.575c0,0.173,0.005,0.346,0.015,0.519c0.435,7.533-2.347,14.883-7.833,20.694
	c-6.121,6.485-14.723,10.204-23.601,10.204c-17.323,0-31.417-14.094-31.417-31.417v-46.963c0-4.971-4.029-9-9-9s-9,4.029-9,9v46.963
	c0,27.249,22.168,49.417,49.417,49.417c13.811,0,27.184-5.776,36.69-15.848c8.862-9.39,13.376-21.396,12.727-33.838
	C265.516,357.152,252.753,344.479,237.086,344.479z M102.386,305.433c-41.487,7.231-72.354,15.896-97.138,27.271
	c-4.518,2.073-6.499,7.416-4.426,11.934c1.515,3.302,4.776,5.248,8.186,5.248c1.255,0,2.532-0.264,3.748-0.822
	c23.338-10.71,52.801-18.938,92.721-25.897c4.897-0.854,8.174-5.515,7.321-10.412C111.945,307.857,107.282,304.587,102.386,305.433z
	"/>
<g>
</g>
<g>
</g>
<g>
</g>
<g>
</g>
<g>
</g>
<g>
</g>
<g>
</g>
<g>
</g>
<g>
</g>
<g>
</g>
<g>
</g>
<g>
</g>
<g>
</g>
<g>
</g>
<g>
</g>
</svg>
