<?xml version="1.0" encoding="utf-8"?>
<!-- Generator: Adobe Illustrator 18.1.0, SVG Export Plug-In . SVG Version: 6.00 Build 0)  -->
<svg version="1.1" id="Layer_1" xmlns="http://www.w3.org/2000/svg" xmlns:xlink="http://www.w3.org/1999/xlink" x="0px" y="0px"
	 viewBox="0 0 500 500" enable-background="new 0 0 500 500" xml:space="preserve">
<g>
	<path fill="#F7F9FB" d="M442.3,187.5l-121,3.4L251,70l-49.1,148.2L57.5,246.9l134.6,59l-73.9,156.4l165.4-120l126.8,74.1L364.5,295
		L442.3,187.5z M385.7,387.1L282.8,327l-131.6,95.6l58.1-123.2L100,251.5l111.9-22.1L254.3,101l59.8,102.9l102.7-2.8l-66.6,92.1
		L385.7,387.1z"/>
	<path fill="#F7F9FB" d="M492.4,160l-141.7-8.6L247.2,0l-75.7,175L7.6,240.4L143.3,339L84.4,500l202.3-104.6l164.3,57l-40.9-157.3
		L492.4,160z M432.6,432.5l-146.9-50.8l-178,91.9l51-139.3L33.9,243.6l147.3-58.7l68.7-158.5l93.8,137.5l126.7,7.7l-74.2,121.6
		L432.6,432.5z"/>
</g>
</svg>
